/* XPM */
static char *_99e37337e7c422690449f5a36d44e6cysJRwcnvLkG1otQC[] = {
/* columns rows colors chars-per-pixel */
"90 60 32 1 ",
"  c black",
". c #110000",
"X c #001100",
"o c #111100",
"O c #000011",
"+ c #110011",
"@ c #001111",
"# c #111111",
"$ c #221111",
"% c #112211",
"& c #222211",
"* c #000022",
"= c #110022",
"- c #001122",
"; c #111122",
": c #221122",
"> c #221133",
", c #112222",
"< c #112233",
"1 c #222222",
"2 c #332222",
"3 c #223322",
"4 c #333322",
"5 c #222233",
"6 c #332233",
"7 c #223333",
"8 c gray20",
"9 c #333344",
"0 c #443344",
"q c #334444",
"w c #444444",
"e c #554444",
/* pixels */
"@#O#@+@#O#@+X  ;#####@#@+@#@+@#O#  ;#####@#@+@#@+@#O#   ;##############@##@#@#O#@Oo ;#####",
"############O# 1;%;#;#############@1;%;#;############@+X,;,;%;,#;,#;##;#####+#@##@+X;,;%;#",
"O####@#@#@+## X;%;######@##@#O#@#1 ;%;######@##@#O#@##  1##%;#######@#@##@#@##@+@# O&;####",
"##@###+###@#5# 1;##;@#@;#+######;1o;##;#@#-##+######O1# 1#,###;#;#@;####@#+@#O#@.@1 1#;#;@",
"@###O#@#O#;#8oO1#######+#@#@+@#,81O1,###;##+#@#@+@#@18# 1;##;##@####@#@#+@#@+@oO##2@1#####",
"+#@+@##@#@141  ;,#@;#O#@#@+#@:111+X;####@+@#@#O#@#;16# @#,###@#@#@@##O#@@+@+@#@##8##;,#@#@",
"@O##;#;1;28;.@ oO####;,1:1,:,1#O X ###@;#,1161611111#  . ##;1:11:1:111#:###&11:1&O  o##@+@",
"   @.@. #  XO.@ #  O X.OX  X.OX+X+  @ O .  # @o##+X+X+XOXO X    X X+###@# @   X Oo @ O O. ",
";,:,5755,1,:,;,:,;,# #88988571511,11;11# #189889885111:%:11# ##15111757111;1;1# #;515,:,,;",
"#;#;;,#,#;;#;11;###; 5751,111,;%;#;#####@6qw81:%:%$;########  151,;;%:#,;#####; 15,;;;,;;;",
"#;;##;#;@#@;@@;#@*#@#511,:,;;#;#####@#;@.qw5#11#;$#%######### 51,#,#;%;##;##;## <;,;,;#;#;",
"-#@;@;@#;O#@+#O@##@+X51;,#;%;%###@#;###@+w81;$,$%;##;#;$#;## X1;,:#,#;##;###@#@.,;;1#,;,#;",
"#;#;#@;@#;O#@##O#O#@O15%;#;#;#;#;##@O###@811#&;####$########+ ,#,#,#;%####@###;@;,;;;;#;#;",
"@;#@;#@+@##-+@#-#@+;X:,:#,$,#####@#O##@+@05&;##&;#%;##&#####X 1;$,#;$#;###;#@#:X:,;%;#;#;@",
"#@;@#*#;O#O#@+@+@+@#O%1;%;##;##@##@##@#+X94;&;###$########$#O.,;%;##;###-##@##1 ,;#;,#;,#;",
"#;@;#@#O#@#O#@+@#@#:X;##;%#;####-##O##@#+88;&##:##;#$######& @#,#;####@###@#+#1O1;;##;#-#@",
"@#=@+@;#@+@#O#@+@+@1O#,#;###@#@####@#*#OX98,#;#%######;####1 .,:#,#;##;#@###@#,.;%;@;#;#;#",
"O;@#;#O#-#O#@+@@+@#:X:;%#;####;#@+@+@##@.51$######$########1OX;#;####@####O###;X;;;#;@;@#-",
"@##@;@#O#O#O#@+@#O@1+,##;##@#@#O##@##@#OX61####:#########+$4+ 1########@#@##O;&O,#;@;##-##",
"O#*#O#O#@#@#O@O#O@:5X1;##@######@##;O#O# 7$#;##########+##8wX+,;#;#@;#@#+;@###1+;#;##-#;@O",
"O#@#@#@O#OO@+@+@O;1# ;%###@+@+@+@+@#O# O.1,############@#4e1 ##,####;#;;###OO11X#,@;@;@##O",
"O@+@=#;#;##@;#;111#Oo ##O#O#@O@#O@+@ OX @ ##########$112881X+ X##@######1,1111 OX+#@O#OO@O",
"   +X# # O# +@oO X+XO# OXO.@.X. X.XOoOoOoOo Oo  O .@   #oO. @oO. O O @ #  .  @.@.@ +XOX.OX",
",11,;#,;%:# X#8q9999875551,1,>,#O#176751511,1,5111,# #515151151,1,1#,:,# #7988789787515111",
"#;,#,$#####@.5978751,,;1,;#;#;#; 1951,1,1;;#;11,;#;#@171,11,1;;,##;#####O587515151111,1,;;",
";%;##;##;@# @75751,;,:;%;#;@#-#@@571,#;#;%#,##;##### 851,;,;,###;#######X875111,1,;,:,$,:%",
"#;#;###@###O#85;,;;;#,#;#@;#;##@.761;1#,#;##;###;#@#O71;1,$##,#;###-#@;#O85115,1,11;1#1;%;",
"#,####;###@ #95,;#,#;;#;#;#-#@;@+87,#;#;%#;####@#### 51;#1;,#####-####;#X6711,111;1,1;%;:#",
"##;###@##@+ #751;;#;%;@#-###@##O#711;%;##;###;###@#@+,1,#;##;#@;####@##: 71,11,;11,:%;1#,#",
"#;######O##OX65,#,#;#;#;%-#-#@#@ 1,;#:%#####@#@###+@ 1;#,#;####@#@#O##;#X511<11;1;1#;#,#;#",
"####-#@##;# #,1;#;#,@#-###@##-+#O1;#,##;##@;####O;## 1,#;###;@#+#####@#1 51,1;,:%;#,#,#:%;",
"@#;####+@#1 O1,;,#-#;##-#-#@+#@@ 1;%#;##@####@###@#OX;;#####@###@#@+@#;#O11,:,$,#,#;&;##;#",
"##@#@+@###1OX1;#;@#;@;###@##@##O+%;#;####;+@##+-#### 1#,#;@##;@#;######:X51,1;1#;#,#;#;%##",
"@#######@#;oO1;,#;##;#-#@#*#@*#@ ,#;###@+@###@###O#O 1;#######+#@+@#@+;# 11;1#,;%:######;#",
"+#@+@#@+@#1  ,;#-#-#@#@#@##O##O@.1;####;###@#;+@#@#@ 1#;##@;@#@####O;@#%O71,#,#;#;#;##;#@#",
"@##@#+@#O18# ;,##@##@##O#O@#O@OO ;%##-#@#@#+@#@#O+ Oo;,#@##+#;#@+;#1#111 :,:%:#%#####@####",
"O##;#;#116oOo #@#O@O@O@O@+@OO@ # #O#@+#O#O+@+OX+X@OX  ##+@O###;$,1%;1;$OX ###@####@####O@+",
" OoOo # @  @ O O # + #+X+@#oOoOoOX.  X   o X # O.@#.#O  X.XO X @  + o X.Oo#@ + @OOoO O #  ",
"#8q9898767215111;&;1,#1+X:79898511,1;1:#@#157577511,,1,1;<1# #1111,,;,;,1,# #1878751,;,## ",
"585111;151,;#,:1,###;##;X585,#,;%;#;##;# 5711,:%;,;;#;#;##@#O11;,;$;######; 785151#;##### ",
"811,;#,##;#######;##;###+31;1#;#;####@##@81<1,#,;&#,##@#@#@# ;1;#,######;## 11;,#;#,###;# ",
"51;$,#;#;##;#;#;######;# 1;%;,#,##;#;##@#5,,;#,:%@;##@##@#+@.,#,:#;%;#-##O#@1;,#;%;##;##@ ",
"1,;%;#$;#%######;##;####@1;,#$;####@####O7:%:,#;#;##;@#-+@;# ,;%#;########;#1;1#;#####@##O",
";&;#:#,##;#;##;#####O#;# ,:#,#;##;###@;@.1,;%;%;%#@@####@#@#O#1;##,#@#@#@###1,;#%;##;#### ",
";#,#%;############O###;#+,#,#;%##@##;##O@1,;,;#;#;##@;@####@.,;#,###;##=##;#,;&;###;#@##@O",
";&;#;##;##;#+##;@#;####, 1;$,##;###@#@## ,;$%;#,##@;#@#O#@=@ ;%#;##@#+@#@####;#;%;####@+# ",
"#;########+@#-+#+##@#;#1.,;%###@#@;#+##O.,#,;###;###@+#@#@####;###;#######;o;%;####@####;X",
";%;#;#;########@###+#@#1O%#;#;##+##@#@## 1;#%;;#@#-##@;#@+#;o;%;##@#@;@#@#;o;#;####;#@#@;.",
"#;######+-##O####-###+#8.,;#@+@#;#####O# ,,;#####;#@;#@##@#,+%;####;+##+##1 ,#%#;@#@#+##1O",
"1#;####@######O;#+@+@#;4O&###@##@#@+@#@OX1;#;#@;@###@#O#@#O8 1###-##@#@#@#1+,$;####+#@##5X",
"#;###;#+#@+@+@##@####;42O#;###O##O#@#O+X+#,###@##@#@#@#O#O11X;;###;##O#O#61o;##@+@#@#@;12 ",
" ###O@+@###;&;1$:%:1112@oO#@O#@O#@+O# @ OX#;#;#;#;#;#;$,11:# .##;%1:,11111@  #@+@#+#;$1;#@",
"   X+X.@ O oO  @ +XO## @ X+ X +   X  @. # +X @XX X+X  @   XOX@OX+  X.@.   .@# #   @  OX o ",
",1,;1578811;#X+#789875111;1,:,,11#O#1511157851511;,;1# .#5186111,,:,1557511,;,#1,1# #1515,",
"#;:###;;#;### @881,11,;;#,###;#### 1511,,11,111;######OX171,,,;,#;%;#%,#,;%;#$,#;##O11,,#;",
";%#,#,#####;#  1,;;;#:%#;#;#;###;#@11,;:;#;#;#;##;##@# +1,1;$;%:#,#,#;#:%#;&;%#####X1,:;&;",
"#;#;#####-#@#OX1;1%:%;#,######;#@# 5;%;%;%;%;##@#@####OX51;%;%;%;#:#,$,#;%;##;#;#@#O1;%;;%",
"##,###;@##### +,;#;%;#;#;##;##@### 1;%:#,#;####;###-#@.O1,;1#;#;%;%;#,##,##,###@### ,:,#%;",
"#,###@#####@#OX:,&;;#%;#####@###@+@;%:,#;#%;####@###+# X1#,#,#1#,$#,##,##;%;#####@#O1#,:;#",
"####;###-##+@  1#;%#,####;@##;###@ 1;#;%#,###;@##;@#@#O ,;$,;#,##,#;%;#;%:###;@#@## ,;#%#;"
};
