/* XPM */
static char *doll_resultat_xpm[] = {
/* width height num_colors chars_per_pixel */
"    90    66      256            2",
/* colors */
"`` c #050205",
"`. c #4c8eac",
"`# c #860322",
"`a c #c8c490",
"`b c #434428",
"`c c #874944",
"`d c #aa8365",
"`e c #a4a37f",
"`f c #dc4858",
"`g c #8a634f",
"`h c #5c6244",
"`i c #5c0214",
"`j c #eae4a7",
"`k c #d48c78",
"`l c #d6a580",
"`m c #6a4434",
"`n c #a46d65",
"`o c #e7c494",
"`p c #b0936e",
"`q c #142214",
"`r c #49291c",
"`s c #c92243",
"`t c #60543d",
"`u c #ead49e",
"`v c #8a7455",
"`w c #a74847",
"`x c #d8b486",
"`y c #686448",
"`z c #6a2827",
"`A c #c47064",
"`B c #fbf4b3",
"`C c #84845f",
"`D c #787454",
"`E c #243218",
"`F c #b4b284",
"`G c #9c9e74",
"`H c #bf8577",
"`I c #892a31",
"`J c #87584a",
"`K c #e9e6d3",
"`L c #a77465",
"`M c #c19473",
"`N c #f0d5c6",
"`O c #8f8663",
"`P c #6c426c",
"`Q c #7a5443",
"`R c #f0b2a4",
"`S c #696661",
"`T c #946a8c",
"`U c #946454",
"`V c #d79494",
"`W c #744538",
"`X c #443324",
"`Y c #e8696a",
"`Z c #96946c",
"`0 c #385c6c",
"`1 c #240414",
"`2 c #c5d3cf",
"`3 c #bc769c",
"`4 c #c8a47c",
"`5 c #342218",
"`6 c #c9394c",
"`7 c #dbb49f",
"`8 c #78644a",
".` c #b47274",
".. c #a48898",
".# c #9c728c",
".a c #4f4733",
".b c #f9a794",
".c c #a61734",
".d c #b18c6c",
".e c #e9cdbc",
".f c #f6d4a7",
".g c #9a745a",
".h c #64332f",
".i c #955c56",
".j c #f94563",
".k c #f9e5b3",
".l c #c492ac",
".m c #928b7e",
".n c #59342b",
".o c #c7a397",
".p c #6a0318",
".q c #615c42",
".r c #34321b",
".s c #aa7c63",
".t c #c59b77",
".u c #392c21",
".v c #f8c2a8",
".w c #a4243c",
".x c #525038",
".y c #974946",
".z c #d7ac99",
".A c #a95961",
".B c #cab48c",
".C c #241213",
".D c #74322c",
".E c #faecb4",
".F c #dbc38f",
".G c #896c53",
".H c #f48579",
".I c #694c39",
".J c #dcbc8c",
".K c #be8d70",
".L c #8a5e4e",
".M c #fceecd",
".N c #8e8c65",
".O c #a497aa",
".P c #c47774",
".Q c #986c58",
".R c #fc978a",
".S c #794c3e",
".T c #f7756c",
".U c #e8565c",
".V c #84166c",
".W c #eacc98",
".X c #fcf4dc",
".Y c #f9dcbf",
".Z c #7a5b45",
".0 c #c9ab7e",
".1 c #eb3a5b",
".2 c #740254",
".3 c #b4856a",
".4 c #6c6b4c",
".5 c #7a786c",
".6 c #766c4f",
".7 c #3c3a40",
".8 c #c7b9a9",
"#` c #88162c",
"#. c #546a7c",
"## c #6ca2b4",
"#a c #a7363f",
"#b c #80a8bc",
"#c c #c45654",
"#d c #749aa4",
"#e c #471b19",
"#f c #bc3e8c",
"#g c #983e40",
"#h c #141213",
"#i c #98a2ac",
"#j c #d8d7a0",
"#k c #487ca8",
"#l c #d03a80",
"#m c #e67996",
"#n c #6086a4",
"#o c #c4c2bc",
"#p c #b4b4b0",
"#q c #c87a90",
"#r c #562d2b",
"#s c #b44248",
"#t c #d76967",
"#u c #acaab4",
"#v c #1c3244",
"#w c #f684a5",
"#x c #fc5764",
"#y c #771661",
"#z c #d4525c",
"#A c #c72b4c",
"#B c #751123",
"#C c #d44e8c",
"#D c #b96574",
"#E c #2c0234",
"#F c #fcc2d4",
"#G c #b82640",
"#H c #9cb0b8",
"#I c #746264",
"#J c #fb6964",
"#K c #341314",
"#L c #fcb9cc",
"#M c #f4a2ac",
"#N c #242224",
"#O c #587c90",
"#P c #970728",
"#Q c #4c2e4c",
"#R c #ac4674",
"#S c #da3656",
"#T c #543654",
"#U c #dcc6b9",
"#V c #9c122c",
"#W c #bc384c",
"#X c #d9d3c1",
"#Y c #7a282a",
"#Z c #b71b3c",
"#0 c #47596c",
"#1 c #d97d91",
"#2 c #a49e80",
"#3 c #081828",
"#4 c #9c505c",
"#5 c #f997a7",
"#6 c #e45a80",
"#7 c #dc5e7c",
"#8 c #842e5c",
"a` c #9c0e7c",
"a. c #d46888",
"a# c #c79e97",
"aa c #b4bec4",
"ab c #34424c",
"ac c #d88d92",
"ad c #cc7288",
"ae c #b4a779",
"af c #b45654",
"ag c #d5ad84",
"ah c #ecdb9f",
"ai c #f1bdac",
"aj c #db9b98",
"ak c #e0bca5",
"al c #ccac9a",
"am c #a72d47",
"an c #fa8bab",
"ao c #f4ceb4",
"ap c #f8adb0",
"aq c #19020f",
"ar c #77031c",
"as c #d52d4c",
"at c #989584",
"au c #8c7c84",
"av c #fb4b64",
"aw c #cc947e",
"ax c #3c2524",
"ay c #cc8c8c",
"az c #541e24",
"aA c #b49c73",
"aB c #b48e84",
"aC c #855145",
"aD c #453b2a",
"aE c #b67d71",
"aF c #f4dca2",
"aG c #673d30",
"aH c #3c3c24",
"aI c #cabc86",
"aJ c #241b17",
"aK c #bccec8",
"aL c #bc6c78",
"aM c #240e24",
"aN c #fcfce9",
"aO c #d4264b",
"aP c #54424c",
"aQ c #e4aa9f",
"aR c #f47ea4",
"aS c #8c0e2c",
"aT c #857d5c",
"aU c #fcfcb9",
"aV c #7c7b58",
"aW c #9a7b5d",
"aX c #5c3b2d",
"aY c #f8cea4",
"aZ c #763d39",
"a0 c #d7cb95",
"a1 c #b64c4c",
"a2 c #213b4f",
"a3 c #776d6f",
"a4 c #981e38",
"a5 c #d4decc",
"a6 c #242214",
"a7 c #cc8284",
"a8 c #fcd3bc",
/* pixels */
"#ha6a6.C`5`5a6`5`5`5`5.ra6`5`5a6`5`5`5.ra6.r`5a6.r`5.ra6`5`5.r`5.r`5.r`5`5`5`5a6.r`5.r`5`5`5.r`5.r`5.r`5#N.r.r`5.r`5.r`5.r`5`5`5`5`5`5`5`5`E`5`5`5.r`5`5`5.r`5a6`5`5a6`5`5a6.r#N`5#N",
".C`q.Ca6a6`5`q`5a6`5a6`5`5`q`5`5a6`5`5`5`5`5`5`5`5.u`y`S`5.ra6`5.r.raH.qat`D`D`DaT`C`C`C`C.N`Z.N`O`C`C.N`eaV.6.q.aaH.u`5`q`5.r`5.ra6`5.r`5`5`5`5`q.r`5a6`5`5`5`5`5`5.r`5`q`5`5`5`5`5",
"#h.Ca6a6a6`5a6`5`5`5`5a6a6`5.r`5a6a6`5a6`5a6a6`5`q.u`S`Sa6`5.r.u.a`t`y.5`e`CaVaT`C.N`O.a`m.a`Q.Z.Z.ZaT.N#2`C`C`C.4.q.aaHax`5`5`5`5a6.r`5`5a6.r`5a6`X`5`5`E`5a6a6a6`5`q`5`5`5`5`5`q`5",
".Ca6.Ca6`5a6`5a6`5`q`5`5a6`5`5a6`5`b`X`X`X`X`X`X`X`X`Sa3`XaD.a`y`DaV`C`Cat`O`g`g.G`g.g`M`p.K.d.3.d.K.s`g`g.G`OaTaTaV.4`t.a.r`5`5a6`5`5`5a6`5`5`5`5.r`5a6`5`5`5.r`5`5.r`5a6`5a6.r`5`5",
"#h.C`q`5a6`5a6`5`5`5`5.ra6`5`5`5a6`X.r`5.r.r`5.r.raH.a.5.q.a`y`D`C`D`v.g.gaB.t`l.t`l`4`l`xag.taA`4`M.d.d`M.K.g.Q`v`v`CaV`y.xaH`5`5`5`5a6`5a6a6`5a6`X`5`5`5.r`5`5a6`5`5`5a6`5`5`5`5a6",
".Ca6a6.Ca6`5`5a6`5a6`5`5`5a6`5`5`q`X`5.r`5a6`5`5`5`5.a.5.m`D`CaV`vaW.s`Mag`7`x.J`x`l`M.s.3.3.Kag`x`xagag`M.3.3`M.KaWaW`CaT`D.q`b`5.r`5`5.r`5`5`5`q.r`5`5`5`5`5.r`5a6.r`5`5.r`5`q`5`5",
"#h`q.Ca6`5`5`q`5`5`5`5a6`5a6a6`5a6`X`5`5`5`5`5.r.u`b.q.mataT.6.g`d.tagag`o`o.v`o.J.t.d.s.K`4`4.d.K.t`4.J`xag.d.s.3.K.3`v.6`C`D.q`b`5`5.ra6`5.r`5a6`X`5a6.r`5`5`5`5`5`5`q`5`5`5`5`5`5",
".Ca6.Ca6`5a6`5a6`5`5`5`5a6a6`5`5a6`X.ra6`5`E`5`5aD`y`D.m.maW`d`Mag.J.v`o.W.WaY.W`o.F`x.K.d`l.J`x`x.0.K`M`4`x.J`4.g.Q.s.3`g.6`OaV.qaDaH`5`5.r`5.r`5.r`5`5a6`5.r`q`5`5a6`5a6.r`5`E`5a6",
"#h.C`q`5a6`5`5`5a6a6a6`5`5`5`5a6`5`X`5`5`5`5.u`b`yaV`CaT.g.s`M`x`o.W.WaYaFaFaFaFaF.W.W.J`l.d`4`x`o.W`o`4`M.dagag.K.L`Q`U`U`Q`8`CaT.4.x.r.r`5`5`5a6.r`5`5.r`5`5`5.r`5`5`5`5`5`5`5`5`5",
".Ca6.Ca6a6#K`qa6`5`5`5`5a6a6`5`5a6`X`5`5.r`5`b`y`D`C`v.3.3.dag.WaY.WaFaF.E.kaF.E.EaF`o`o.W`x.K.tag`o.W.W.JaA`d.3.3`L.S`WaC`J.S.6.N`C.6.q`X`5.r`5`5`E`5`5a6`5.r`5`5`5.r`5.r`q`5`5`q`5",
"#h.C`q.C`5a6`5a6`5`5a6`5`5`5`5a6`q`X`5.r`5.u.x`D`O`v.3`d.sag.W.f`j`u.kaU`B`BaFaF.E.k`o.J`o.W`x.Kaw`x`o.W.W`o.s`U.Q`L.i`W`WaCaC.S.6`D`O`D.qaH`5`5a6`X`5`5.r`5`5.r`5`q`5`5`5`5.r`5.r`5",
"a6a6`5.r.r.r`X.r`X.r.r.r.r`5.r`5`5.r`5`5`5`b.4`C.6.3`d.L.s.JaF.EaFaF`BaUaF`B.E.Wah.EaF`xag`o.Wag`d`M`x`o.W`oaw`g.S`J`J.SaGaCaC`J`k`k`v`C`D.q.r`5a6`X`5`5`5`5`5`5`5.r`5`5`5.r`5`5`5a6",
"#h.CaJa6.C`5a6`5`5`q`5`5`5`E`5a6`5`X.r`5`b`yaVaT.G.3`U.g`MaY.EaFah`BaUaU.Ea0aUaFaIaF.k.J.Kag.W.J`d.saw`x`x`l.3.iaG`WaC`J`WaG`J`k.b.R#t.G`C`y`ba6`5.r`5.r`q`5.r`5`5`5`5`E`5`5a6`5`5`5",
".C`q.Ca6a6`5`5`5`5.r`5a6`5`5`5`5a6`X`5.u.x.6`C`8.3.s.s`M`x.E`Bah`jaU`BaU`BaI.E`B`x.JaF.W`4.t`o`o`M.g.K.K.3afaf`w`w`w`c`WaZaz`A.R.R.T.jam`DaV`t.u`5.ra6`5`5`5`5.r`5.r`5`5`5a6`5.r`5a6",
"#ha6.C`5a6a6`5`q`5`5a6`5.r`5.ra6`5.r.raD`haVaT.g.3.Q`4`4.B`B`j`o`BaU`u`BaUa0aIaU`u`4.W`u.J.3ag.Wag.g`Ua1`6.U#x#J#J.T#z.w.yaf#c#J.Tav.1#G.ZaV.4aDa6`X`5`5.r`5.r`5`5a6`5`5.r`5`5a6.r`5",
"#h.C`qa6`5`5`5`5`5`5`5`5`5`5`5a6a6`X`5aD`y`O`y`d.g`d`x`4`x`B#j.F.EaU.0`BaUaF.B`j`j.0.0`o`o.t`p.J`x.s#a#S#S.1.jav#x#J#x.1af#t`f`6`Yav.1`s#YaVaV.q.r`5.r`5`5`5`5`5.r`5.r`5a6`5`5`5`5`q",
".Ca6.Ca6`5a6`5`5a6`5.r`q`5`5.ra6`5`XaH.xaV`D.Z.3`g.t.W`xaI`BahaI`BaUae`jaU`BaIa0`B.F`d.J`o`x`d.0`x.s#sas`sam.Uav.j.jav.1`s#a`f#A#s.j.1`s#YaT.N.4`baH`5.r`5a6.r`5`5`5`5`5.r`5.ra6`5`5",
"a6#h.Ca6.C`q.Ca6.C`q.Ca6.Ca6.Ca6.Ca6.r`y`C.4`Q.3.Q`l`u`x`xaU#jaI`BaU.0ahaUaU.FaI`j.W.s`p`x`x.d`d`4.t.Q#Y.c#`a1#J.j.j.j.1aO.c#Aasa4.1.1.c#B`t.NaV`y.a`ba6aJ.C`q.Ca6.C`q.Ca6.Ca6.Ca6.C",
".C.C#h`q.Ca6.Ca6a6.Ca6.Ca6`q.C`5`qaJ.a.4`C`yaC.3.Qag`uaI`x`BahaI.EaUa0aAaF`B.WaA`x`o.d.Q`4.J.t.Q.Kaw.saG`z#B#g#J#x.j.1as`s#Z#`.ca4.1.1.w#B.I`O`ZaV.4`y.aaHa6a6.Ca6a6.Ca6a6.C`q.Ca6.C",
"`q#h.Ca6.Ca6a6.Ca6#Ka6a6#Ka6.Ca6.C.r`taV`D.I.i.3`gag`u.J.B`B`j`4ahaU`u.d`xaF.W`paAag.K`Q.s`4`M.L.gaw.K`JaG#e.y.T#J.j.1aO`s.c.par#Bas.j#S`I`U`O.N`C`D.4`y.a.r.Ca6`q#Ka6a6.C`q#K`q.Ca6",
".C.C`q.C`q.Ca6.Ca6a6a6.Ca6a6`5a6a6aH`y.N`D`m.L.3`g`laF.F.0.E.Eae`x.E`u`laW`o`o.d.Q`M.s.SaC.K`M.i`g`Maw.saG.n.i.R#J.j.1aO#Z#Par.par#A.1.j#S.y`M`Fae.daT`y.x.ra6`5.Ca6a6.C`5a6`5a6a6`5",
"a6#h.C`q.Ca6`5a6`5a6.Ca6#K`q`5a6`5`taV.N`8.SaC`d`g`l`u.W`M.F`j.0`4.W`u`xaWaA`4.g`W`U`U`W`m`L.s`JaC.Kaw.s`m`W.i.R#Jav.1`s#Z#P`#`i`##Zas.1.1#A.Q`uah.JaW`h.q.r#Ka6`5a6#K`qa6`5.Ca6#Ka6",
".C#h`q.Ca6a6.C`5`q`5a6a6a6`5a6`5`b`y`C`D.IaC.I.s`g`4`o`o`paA`u`x`d`x`oag.QaG.iaC`m.S.S`W`W`J`UaCaG.Q.s`n.S.h`J.R#J.j.1aO#Z#P`#`iaS#P#Zas#Sas`c`M`4`M.Z`y.q.ra6`5`q`5a6`5a6`5`q`5a6`q",
".C.C.Ca6.Ca6`5a6a6`5`5a6#Ka6`5`E`taV.N`8.LaC`Q.3`g.t`l`x`M`d`x`x.Q`d`M`d`J`J`g.Q.3`L`g`n`LaC`W`W.S`W.L`JaC#eaZ.T#J.j.1`s#Z#Par`z.w.c.c#Z`s#Z`zaC`J.Z.4`D.x.u`5a6`5a6`5a6`5`5a6`5`5a6",
"a6#h`q.Ca6`5`q`5`5a6`5a6a6`5.u.a`D.N`C.Q`U`W.Q.K`g.K`l.t`M.Q.3.3`U`m`WaC`p`7akakaiak`7`RaQaE`U`LaE.L`W`W`W.L.ia1#J.j.1aO#Z.caraZ#Y.c#V#P`##B.q.6.6.6aV`y.a.ra6`5`5a6`5.C`5a6`5.Ca6.C",
".C#h.Ca6.Ca6`5a6`5a6`5`q`5.u.x.6`C`C.d.d`U`m.3`4.Z`L.Kaw.K.iaG`maG`dae.B.Y.Y.k.Y.k.Y.Y.YaoaiaQ`V`V`H`n`n`Laya7#D.U.j#SaO`s.c#Y`W.n.D.D.p`J`p`O`G`Z`C.4.xaH`5a6a6`q`5a6a6a6a6`5`q`5`5",
".C.C`q.Ca6#Ka6`5a6`5`5a6`5.r.qaVaTaA.J.K.S.n.d`l.QaC.s.s`n`Q.S`M.B`N.M.k.M.M.M.M.M.Y.Y.Y.Y.Yao`7ajaj`V`V`VajajaE#W.1as`s#Zar`W`UaX.S`J.SaW.F`Z`G`G`O`D.qaD`X`X.r`X.r.r`X.r`X.r`5.r`5",
"`q#h.Ca6a6`q`5a6`5`5a6`5a6aD`t`yaA.J`l`LaG`r.dag.daXaC.LaC`J.o.Y.XaN.M.M.M.M.M.M.M.M.k.Y.Y.Y.Yao`Rajajajaj`Vajac#D#GaO#Z`I.h`W.s`QaC.Q.g.Q.Ja0`Z`G`ZaT.q.x.u.r`5`5.r`5`5`5a6`5a6`5`5",
".C#h.Ca6a6#Ka6`5`5`q`5`5a6`X.q.x`d.t.s`Q`X`r.d.J`4aX`m.I.Gag.YaNaNaNaN.X.M.M.M.M.M.M.M.k.k.Y.Y`N#o#u.O.O.O.O..aEay.A#Y`zaZaX.g`M.G`J.s.s.L`M.Wa0`O.4aV`D.x.u`5a6`5`5a6`5a6`5`5a6`5a6",
"a6.C`q.C`1a6a6`5a6`5`5a6`5.r`t.4.q`t.q.6.6`XaWaF`x.G`VaQ.f.MaNaNaNaNaN.X.M.M.M.M.M.M.M.M.k.Y.eaa#b#n#k#k#k#kaP.i`V`L.s`d`Q.haW`l.J.G.s`l`p`U.t.W`j`jaA`h`taHa6`5`q`5`5`5`5`5`qa6`5`5",
".C#h.Ca6a6a6.C`5`5`5a6`5`q`5`b.q`D`Z`e.N.I`W.G`j.F.QaQao.k.MaNaNaNaNaN.M.M.M.M.M.M.M.M.M.M#X#H#O#0abax#N#N#3#K.L`VaEaA.t`Q`m.QagaFaA`d`l.t`g.Q.t`o.J.d`h.q.r`5`5a6`5.r`q`5a6`5a6`5`q",
"a6.C`q.Ca6`5a6`5`q`5a6`5a6`5.r.a.qaV`Z.N.Z.i`8ahah.gaQao.M.M.M.XaNaN.X.M.M.M.M.M.M.M.M.M`K#H#.ax#E#Q#8#R.S#N.C.L`VaE.0`x.g.SaGaAaF`jae`d.t.d`g.s`M.K`v`y`t.ua6`5a6`5a6`5`5`5a6`5`5`5",
".C#h.C`q.Ca6`5a6`5`5`5`5a6`5`5a6.a.6`Z.NaW.g.Zah`j.saB#U#XaK`2`2a5`K.M.M.M.M.M.M.M.M.M.M`2#O#N````au`3#6al.xaJ#I`V..`x.W`d.SaG`d.JaF`jae.s`d`Q.Z.g`vaV`D.x.r`5a6`5`5`5`5a6`5a6`5a6`5",
"`q.Ca6.Ca6`5.C`5`5a6`5`q`5`5a6.u`taV.N`O.t`L`Qa0.E.da3#i##`.`.`.#b`2`K.M.M.M.M.M.M.M.M.M.8#0aq````a3`T#f`Na3aM`Uac.3a0`u.d`W.S.S`M`oaFah.0aW`yaV`C`CaT.qaD.ua6`5`5a6`5`q`5`5`q`5`5a6",
".C#h.C`qa6`5`q`5a6`5`5`5a6a6`5aH`y`C.NaA`x.s`Q.F`j.s#0#O`0a2a2a2`0#daK`K.M.M.M.M.M.M.M.M.8ab````.C#I...l`K.m.u#I`VaB#jaF`p`WaC`m`g.K.J`o`xaW.d`O`G`O.4`ba6`5`5`5`q`5`5.ra6`5a6`5a6`5",
".C#ha6.Ca6`5a6`5`5aJ`5a6`5`5.u.xaV`CaA.W`x.g.I.F`j.Q#N#v#3``aq#E#y`n#iaK.M.M.M.M.M.M.M.M.B#T#E``ax.m#U`N.X#p#T.iac`H#jaF`p.SaC`JaG`Q.g`d`d`d.0`Z`O`C.4aD`5`5a6`5a6`5a6`5`5`5a6`5`5`q",
"a6.C.C`q.C`5a6`5`q`5`5`5`q`5aH`y`CaT#jaFag`J`m.F`j`d.C````````au`3#7.o#pa5.M.M.M.M.M.M.M`7#R.2``aM`Pada8.X#o`W#D#w`H#j.k`p`m.S.QaG`W`W`m`maW.0agaV`Z`D.a`E`5`5a6`5`5`5a6`5a6`5`qax`5",
".C#h`q.Ca6a6`5a6`5`5a6`5a6.u`t`DaTaI.E`u.d.I.I.FaF.d#K`1``````.5`T#l.b#X#X.M.M.E.M.M.M.M`u#1#l#y#ya`#6aY.M.OadaRaRa7#jaF`p.naG.Q`maCaC`m.S`Q.K`x`p`C`C`y.a.u`5`5`q`5a6`5`5`5a6`5a6`5",
"`q#h.Ca6a6`5a6`5`5a6`5`5a6aH.qaV`D`j`j`4`g.g`g.FaF`d#e.h.n````#N`P#C.R.M.X.M.M.M.M.M.M.M.k.v.H#t#t`Yap.z.oac#L#F#1.B`B`j.d`maG`U`U.IaCaC.I`J.g`4.J`paV`D`t.r`E`5`5`5`5`5`q`5a6`5`5`5",
".C.Ca6.C`5a6aJa6`5`q`5a6`5`X.qaV`D`j`j.d.Q.K.g.W.F.Z`W.i.L#K``#r.o`N.YaN.X.M.M.M.M.M.M.M.Ma8aQ`k.P`A`H.P#man#L#La7`aaUa0.Q.SaG`U.3`W.L.Q`W`J`Q.sagaAaV`C.6.a.u`5a6`5`5a6`5`5a6`5`q`5",
".C#ha6.C`qa6`5a6`5`5`5`5`qaD.qaV`D`jah.t.g`U.dah.0`m.SaCaL.A#e#ya.ap.M.M.Y.M.M.M.M.M.M.M.M.E.k.Yah`o#M#wanananana7#j`B.J.ZaCaG.Q`M`Q.Q.K.L`J`m`J.d`l`p`DaV`t.u`5a6`5`5.r`5a6`5`5`5a6",
"a6#h.C`qa6#K`5a6`5`5a6`5a6aD.qaV.4`j.E.W`M`8`M`uaAaX`maCaL#m.Aam#C`l.e.e.k.M.M.k.M.M.k.Y.Y.M.M.M.Ma8apanan#wan#maA.E.E.0`QaCaG`d`l`8.Kag.Q`g.IaX`L`M.K`g`y.q`E.r`5a6a6`5`5`q`5a6`5`5",
".C.C`q.Ca6`5aJ#K`5a6`5`5a6.u`t.4aV`a`j`u.J`daAag`Q`W.S`J#4#maRa.a7agak.k.Mao`7`7`x.z.z.oa#.e.M.M.ka8ap#5#wanaR.`aI`B`j.d`m.SaG`d`x.G.t.J.s.g.Z`y.Z.Q`U.I`y.x.u`5a6`5`5`5`5.ra6`5a6`5",
"`q#h.Ca6a6`5a6`5`q`5`5a6`5a6aD.4.N.N`p`p`d`d.0.d`m`Q`m`Q.L#DaR#wap.Y.M.M.M.z.SaZaZaZ#g#s.y`l.k.M.Ma8#L#5#w#waL`MaF`B`o`v.D`maG.3`oaW`xaIaW.3.G`Z`v.I`m.q.4.x`E`5a6`5.r`5a6`5`5`5.r`q",
".C#ha6.C`5a6`5a6`5`5a6`5a6a6.r.xaV`ZaV`DaA`x`x`vaV.IaC`m.S`c#DaR#Ma8.M.M.Y.oaZ.I#I`J#4a1#sa#.Y.M.Ya8`R`V#D#4`g.JaF.W`p`J`m`raCaAah`Z.WaI`U.KaA`O`G.NaV.4.q.x.u.r`5`5a6`5a6`5a6`5a6`5",
".C.Ca6.Ca6`q`5a6`5a6`5`5a6`5`5.a.6.N`Z`p`o`x`p.6.N.I`UaG`m`J`c`c`3akaoa8a8a#`d.e`K`K`Nak.``Maoa8`7aj`LaC`c`W.Lag.J.t`g.S`W`5.g.J`j.d.WaI`Q.K`x`O`G`G`O`y.x`X`5`5a6`5`5`5`5a6`5`5`5a6",
"a6#h.C`qa6`5`5a6`5`5a6a6`5a6`5aD`h`DaT`x.J`p`v`G`Z.I.QaG`W`J`W`m.S`Q`Hayaw.`aB`N.X.M.Yao.``UaBay`J.S#T`WaCaC`Q.3`d.L`W`J`WaG.daF`j.d.WaI.S.3agag`O`OaV.q.r`5.r`5a6a6`E`5`5`5`q`5`5`5",
".C#h`q.Ca6`5a6`5`5a6`5`5`5a6`5`5.x.4.6`p.d.6`Z`G`O`J`UaG`m`J`W`Q`n`maG`maZaGaCaB`7`7.o.l.L#r.haZ`QaC.h.S.i`g.S`t.6.x`W`J`W.Q.J.EaI.d`uaIaX.Q.K`4.d.q`D`t.u`5a6`5`5`5`5`5`E`5a6`5a6`5",
"`q.C.Ca6a6`5aJ`5`q`5`5a6`5`q`5`5aD.q.6.q.qaT.N.N`t.i.S`m.S.i.S`J.3`g.SaC`J`W#QaG`WaG#raGaG.S.h.S`J`JaG`J.s`LaC`y`Z`8aC`J.S.g`uaF`O.t`uaIaDaG`U`U`J.x.6`b`5.r`5`5`5a6.r`5`5`5`5`5`5`5",
".C#ha6a6.C`5`5a6`5`5`5`5.ra6`5`5`E.a.q`y.4.4aVaT`D.IaG.S.i`U.I`Q`H`d`QaC.L`JaG.i`n.LaG`J.iaCaGaC.Q`UaG`U`M.s`Q`y`O.h.i.L`g`MaFaI.Z.t.W.W`O`X.I`m`t`y`y`X`5`5.r`5`q`5`5a6`5`5`q.ra6`5",
".C.Ca6.C`qa6`5a6`5a6`5a6`5`5a6`5ax.r`XaD.a.x.q.6`C.4`Q`d`d`d`t`Q.s.K`QaC`J`UaG.QaE.Q.S.Q`n.LaG.Q`H`n`m`U.K`LaC`y.N.I.S`W`gag`j`Z`t.sag.WaA`D`C`D.4`y.qaHa6a6`5`5`5`5`5.ra6a6`5`5`5`5",
"a6#h.C`qa6`5`5`q`5`5`5a6`5a6`5.r`5`q`5`5a6.u`X.x`DaV`v`p`p.daV.I`U.3`gaC.L`U`m.Q`H.s`QaE`H`U`W`L.K.QaX`U`M`L`QaV`G`D.q`t`gagaFae`C.G.s`M`O`C.NaV.q.x`b`5`5.r`5a6`5a6`5a6`5`5`5`5`5a6",
".C.C`q.Ca6`5aJ`5a6`5a6`5`5a6`5a6a6`5`b`X`X`X`X.x`y`DaT.6aT`Z.N`8`Q`n.s`m`J`U`W`U.K`H`J.3.3.L`J`d.K`Uax`U`H.Q.q`Z`Z`O.NaV.G`4.W.W`O.N`D.6`vaV.6`t`b.uaH`5a6`5`5`5.r`5`5.r`5a6`5a6.r`5",
"`q#h.Ca6`5a6`5a6`5`5`5`5.ra6`5`5`5a6`X.r`5.r.r.u.x.q.4`yaV`C.NaV.q`m`Q.6`maG.n`Q`H`M.g.s.3.S.Q.K`H`Q.q`8`J.I.6`O`D.4aT`O.6`d`x`o`v.N`O`D.4.q`b.r`5a6`X`5`5`5.r`5`5`q`5`5`5a6`5`5`5`5",
".C.Ca6a6.Ca6`5`5`q`5a6`5`5`5a6`5`5a6`X`5.r`5a6`5.uaDaD`t.q`y.4aV.6.6aV`Z`DaTaT`8`g.s.Q.I`Q.n.Q.s.L.6`Z`O`D.6aV.4`t.x.qaV`C.6`vaWaV`C`D.q.x`b.r`5`5a6.r`5`5`5`5a6.r`5a6.r`5`5.ra6a6`5",
".C#ha6.C`q`5`5a6`5`5`5`5`q`5a6`5`5a6`X`5`5`5`5`5.r`5.r.uaHaH`b`t`y`D`DaVaV.N.N.N.q`m`8`Z`Z.N`8`m`y`O.N`C`D`y`t.xaHax`b.q`D.6`D.6`D`y.x`XaH`5`5.r`5a6`X`5`q.r`5`5`5`5`5`5`q`5`5`5`5`5",
"a6.C`q.Ca6`5a6`5a6`5`5`5`5`5a6`5a6a6`X.r`q`5.r`5`5`5`5`5a6`5`5.u`b.x`t`t.q`y`DaVaT`DaV.N`C`CaT`DaVaT.4.q`taHaH.u`5`5`5`b`t.q`y`y`h.x.r.r`5`5.r`5.r`5`E`5`5`5`5.ra6`5`5a6`5a6.r`5`E`5",
".C#h.Ca6`5a6`5`5`5`q`5a6`5`5`5`5a6`5`X`5`5`5`5`5.r`5`E`5`5ax.r`5`5.ra6a6`5.r`5.r`5`5.r`5`5a6`X`5`5.r`5.r`5.r`5.ra6`5.r`5a6`5.ra6`5`5.r`5`5.r`5`5a6a6.r`5`5.r`5`5`5.r`5`5`5`5`5`5`5`5",
"a6.C`q.Ca6a6#K`qa6`5`5`5`5`qa6`5`5a6`X`5`5.r`5.ra6`5`5`5.r`5`5.r`5`5`5.r`5`5`5`5.r`5`5.r`5`q`X`5`5`E`5`5.r`5`5`5`E`5`5.r`5.r`5`5`5.r`5`5.r`5`5.r`5`5.r`5`5a6`5.r`5`5`5.r`5.ra6`5`5`q",
".C#h.Ca6.C`5a6`5a6`5`5a6`5`5`5`5a6`q`X`5.r`5`5`5a6`5`5.r`5.r`5`5a6.r`5`5.r`5.ra6.r`5.ra6`5a6`X`5.r`5`5.r`5a6.r`5`5`5.r`5.r`5`5`5.r`5.r`5`5`E`5`5`5a6`X`5`5.r`5`5.r`5`q`5`5`5a6.r`5.r",
".C`qa6`5.r.r.r`r.r`X.r.r.r.r`5.r`5`5.r`5`5`5`5.r`5.r`5`5a6`5`5`5.r`5`5.r`5.r`5.r`5`5`5.r`5a6`X.r`5`5.r`5`5.r`5`E`5.r`5`5`5`5`E`5`5`5`5`Eax`5.r`5`5a6`X`5`5`5a6`5`5`5.r`5`5`5.r`5`5`5",
"a6#h.Ca6`q.C`5`q`5`5a6`5`5`5.r`5a6`5`X.r`5.ra6`5`5`5.r`5.ra6`5.r`5`5.r`5`5a6`5`5a6.r`5`5`5a6`X`5`5.r`5`5.r`5`5`5`5`5.r`5.r`5`5`5.ra6.r`5.r`5`5.ra6`5.r`5`Ea6`5.r`5`5`5`5`E`5`5a6`5`5",
".C.Ca6.Ca6`5`5`5`5`5.r`5`q`5`5`5`5a6`X`5`5`5`5`5.r`5`5`5`5`5.r`5`5.r`5`E`5.r`5`5`5`5`5.r`5`5.r`5.r`5a6.r`5`5`5.r`5.r`5`5a6`5.r.r`5.r`5`5`5.r`5`5a6`5.r`5`5`5`5`5.r`5.r`5`5`5`5`5.r`5",
".C#h`q.C`5a6a6`5a6`5`5a6`5.r`5.r`q`5.r.ra6`E`5.r`5`5`E`5`5.r`5`5aHa6`5`5a6`5`5.r`5.r`5`5`5`q`X`5`5.r`5.r`5.r`5a6aHa6`5.ra6`5`5`5`5`5.r`5.r`5.r`5`5a6`X`5`5.r`5.r`5`5`5a6`5.r`5a6a6.r",
"a6#h.Ca6a6`5`5`5`5a6`5`5`5`5`5`5`5a6`X`5`5`5`5`5.r`5a6`5.r.ua6.r`5`5.r`5`5.r`5`5.r`5a6.r`5a6`X`5.r`5`5`5`5`5`5.r`5`5.r`5`5.r`5.r`5.r.ua6.r`5a6`5.r`5`5.r`5`5`5`5`5`E`5.r`5a6`5`5`5`5",
".C.C`q.Ca6a6a6`5`5a6`5.ra6`5`5.ra6`5`X.r`5.r`5.r`5.u`5.r`5`5.r`5.ra6`5`5.r`5`5.r`5`5.r`5.ra6`X`5`5.r`5.r`q`5.r`5`5.r`5`5`5.r`5a6.r`5`5.r`5`5`5.r`5`q.r`5.r`5`q.r`5`5`5`5`5.r`5.r`5`5"
};
