/* XPM */
static char *_a68d41d8f034b2de11e2db43bb5f1021bLXVDXXlkUQZQAL[] = {
/* columns rows colors chars-per-pixel */
"90 56 29 1 ",
"  c black",
". c #110000",
"X c #001100",
"o c #111100",
"O c #000011",
"+ c #110011",
"@ c #001111",
"# c #111111",
"$ c #221100",
"% c #221111",
"& c #331111",
"* c #112200",
"= c #112211",
"- c #222200",
"; c #222211",
": c #332211",
"> c #223311",
", c #333311",
"< c #111122",
"1 c #221122",
"2 c #112222",
"3 c #222222",
"4 c #332222",
"5 c #223322",
"6 c #333322",
"7 c #332233",
"8 c #223333",
"9 c #443311",
"0 c #443322",
/* pixels */
":::;::;4:;::::;:;:::;::,;:#:::6::;:4::;4::::::;:;;;;%%;%#o0;:4:;::::;:;:::;%;::;:;;::;:%::",
"3:;:;::;::;:;:::::;::::;:;%:6:::%:,;:;:::;:3:;%;%#;$#o;%o#6:;::::;4:;:;:;:;%::;:;:%4;&;:;;",
"::;:#%o#o#%#######$#####%o;:::;;;::::%,:;::::;#-%o%#%;#%##9::;:>4;:;%;:%:;;%:;:%;:;:;:3;:%",
";4:;%%34####%=####<#######;;%*%#;%;;;;%%#;:;:#o%%#o#;$#$#o4:;%::::;:%;:;;%;%o:;;%;%::;:%:;",
";:;;%;:5######<###########%;%#%o%#$#o%o;o%#$#%#%=$%-###=##6:;#:::;:=$;:%;$#o#::%-;;4;:;:;:",
";::%o;34#o@##o############o%o%o#;$##%#;%#*#%o%o#%#%#%#%#%#::;%;:::;%%;:=%;#%#;;%#;%:;:;&;:",
";:;;%%;6###+#+#o##oO#+X+o##%;#;%%%;%o%o%$%#o#;#%o##%o####o:;%;;;:;%$#o%%%o##o#%#$;%:;:3;:%",
"::4%%;34o+#X###@#O##o#####o%%%$#o##$######o%$#o###o#####+##%o%;%;%;###%$####+#o#%##:;:%:;;",
";:;;;;36##@#+X#.############o####o+##o#o+o######O###@+@o@o#o##%o%;%o#o###o+#X##o#o#4:;:;;:",
";:;%#%%;o#.#########################.#####+X#.#o## ##o###+@+#.@#+#o###o#o#####o+#@o:;:;&;:",
":6:::;;%#####X+#####<######<#=#################@####+#@+o@#o@###@o+# ##.##OoO##@#.#4;:3;:%",
"::;;%%;4#############=#<#%=%################.@+o+@.#@o###################o####.####::;:%:;",
"5::%#;;6#####+X###%=#<%=<##<#3#;###############################%#########+@#.@####o:;:;:3:",
"::;;%;34############1#=1;#3#3##<########=#################%<;<###########o#########4;:;%:;",
":,:%%%;6#########2#3#=1##2#%2%2%=###2##%<######=#####<%#2#####=##2#####2###########::3:;:;",
"3:;;o;34o#########%#<%=<;<%2#1=1#<%###<=%3#####<##%####2%#3#2%#<%###%<=%#########;#:;:;&;:",
",::%%;;6#########3<2%2#3#3#2%2#;<;#2%#;<32##;<#%=<#2%#3##2%=1=<;#2%2#=1<###%=<#####:3:;;:;",
";:;;%%34###<###%2%=%=1#1=1=1;#3<=1=1=3<3;1#<#=<;<%=%<=#1=1#2%#3#<;###1=3#######%2##::;:%4;",
",4:;#;:6###=###<#3<312;23333<31;132%3<;233#=%<%=<;<#3#3#3#3#1=<%2#1=1=<3#<#3#<;<#%#:;:;:;&",
"::;%-%36o#1#####;33=3;3133333323333333313;#<#;21;<;<;<;<;<=1=1=1=1=1=1;3#=1=3=1=32o4;:;%:;",
":::;%%;7###########1#<%2%2%<;<;<=1#3#3#;<##%21#3#3<;3<;1=13=1;<;<;<3#313#1=131;313o4;:3:;:",
":3:;#;;6o####o@+###########=###%#=####<#=<#=1=333<;3#33231=123333333323;<;#3#=<#2%#::;:%;:",
":,:%%%34##X#@+#####################%###%##%<=%##<;#<;<%###3#3#1#3<=%=1=<####1##%###:;:;;::",
"3:;;%;;6#.##+o#@##########%#<#=#<####=########<=#######=1#####=##%#<##############o4:;4%:;",
",::;$%34#@+@o@+o########<#####################%##########=#########################:;:;:4;",
":4;;#;;6o#o#+#######=##=#####%####2########=####%#2###################%#####=###<##::;:;:;",
":::;%%34#+@#o@####<###%<#;<=##<;###%<###<#%<###<#####=<%###1####=####2###<####=####:;&;;:;",
",;:;%;:6##########%2%=<#;<%##########%=#=####=%=##%2%###3##=###%<#2%#####=%###1#=%#,3:;&;:",
"4::%#;;4#o#+#####;<##1=%<=1######<##=#<%#1=#3#<##3##<##3#####<#=#%####1=%#<#3#=#<##::;4;::",
">::;%%;6#########<#2%=<#=1=###2%#%=#1##=<=%<#%#;<#<#3#3#3##%#;#1##2#1=##<=%=##1#;##:;:%;4;",
"4:;;%;43########=%=%<##;<%2%####2#<##;<%#1#;<=<##;#;###3#2###<#=#2%#=1#2%#<#1#=<#1o4;:;:;:",
",::;#%;6########<##<#;<#1=3##%<##%#;#<#=<#=<##%=%<##<#3#3##<#;#<%#<;<#3##<;#=#1#;##::;:;::",
";:;;%;;7o########;<#;<#;<;<##=#;<=<#<;#<;#1#%2#<#=#3#;<;<%####1=#3##1=%#3##<#1=#<##:;:;%:;",
"4::%%;;6#######%#<=1=<;<=12%##%<##%2%#<;<##=<#;#<%<##<;<3###;<=#1#=1=1=<#;<;<=#1=%#::;;::;",
">:;;%%34o#######<;3%2%2%33;<##2#;<=##2%##=<%2%<=1=#3#3#3=##<##%<#=1=1=1=1=1=3#1=1=#;%;&;%;",
":4:;%;;6#######=33<3#333231#=1#;<%<%2%=<%<;#3#;<;#3<;<;31=##%=<;<;#<;<;<;<33%23=12%##o###o",
"::;;o%34##+#######3#3#1#;<=##3#3<;2;3#3#=#12;<3#31;<;3<;2%#=#<;<;<3;<;<3;<;12%##%=<%#3####",
":6:%%;;6o##@###+######=#<#%<##2%=#1##<###<;#1=%2##=<%<=1#<##1=1#2%##2%######=#<=##########",
"::;;%;44#@#.#+X#####################=%###########1#=#####################1###%##<#=#######",
":;:%#;;6#.##@######2%##%#=#####<#######%##=<##<#=######################=########%##<#=####",
":4:;$%34#####.#######<#####;##%##=1###2##%###;#####%####=%#######%<=##<%#=#<######%###<%##",
":,;%#;:8o####@########=###<#########<##%2######%##<##3####2#=1=####%<=%####;#<;##2#####=##",
";::;%;;4######o###;<#%#<##;#<##2#1#=#;##2%2##<#2%=#=%#<%=<%####1=%2##3#2############3###<#",
"4:;;%%36o#####+##<#%=<#;###<#;#%#=#1#<#<;1##%=%#<#1##2%=1#=1=1#=<##1=#<;<#####<#%#3##;<#;#",
":;:%#;;4######@###;#<#;<#3##;<#=<%<#=#%=1=###<#2%#=#2%<#=<%#2#;<%2%=1#3#%##2#%=#<=#<;<#;<#",
"::;;%%;6###########<=%<%=%<;<3#1##=1#3#<3#3##=1#=#<%###2%#<;<%<=##<#=#1=<##%###3#1#;<#;<%2",
"5::;#;44##########3##3#2#<=1=###=%<=##3#=3##<%=#%<;#<;<%2%=<;#=#1#=1#1=3#;##<=1#=#3#<;<#3#",
"::;%%;;6###%#####3#3##3#1=1##3#3%2%<;<#131##=#<%<=#<;<#=#<%##<%<#;<#;<;<#<#3#;<;<%2%2%2%2#",
"4;:;o%34##2#####<;<%2%2%2%2#3#1=<=<;<;#=33##%<;<=1#3#;<%<;<=1=%2%2#3#2;1;#3#3<%2#3#1=1=1=1",
":::;%;;6##%#####3#321=3#3=1=1=213%31=1312%2##3#=%2%2%22%2=1;<=1=2%3<;132#2%2#3=31=3=3333%2",
";,;%#%43o#######12;1;312%#3#33%33233333333<%32%3123;<3%33132313133#33331;13%3131=131331333",
":4:;%;;6#+###X####1=<#=%#2%<;#<=#%2#<=##=##=##<=##%<#;<#=1=%o#o#o.#o+o#o#o#o#o#o###o######",
",:;%o;34##@##+#o#####%<########%<#%##%<#%####%##%<=#####1###006060606646,464,6:6:::;;:;#%#",
":3:;%%;6o#o+X##@#############<=##=####=#<#%##<=#####1#=#####0:6:64,4,:,:4:>::4:;4:;%;%;###",
",::%#;34#+@###.#####=#####1=#%#####=<#####2#########=##1=###4,4::,:;:4:::;:4;:;::;;%$;3o##",
"4:;;%;;6#o##.#@##########3#######1####%#####=%#<;<;#1#3#3###9::;::4:,:;6;:::,::;::;%=%;###"
};
