/* XPM */
static char *_c396345c1934ab9b010778b5744942fFjk3YpbGy1XZaWYs[] = {
/* columns rows colors chars-per-pixel */
"91 56 23 1 ",
"  c #111100",
". c #111111",
"X c #221100",
"o c #221111",
"O c #331111",
"+ c #112200",
"@ c #112211",
"# c #222200",
"$ c #222211",
"% c #332211",
"& c #223311",
"* c #333311",
"= c #221122",
"- c #331122",
"; c #222222",
": c #332222",
"> c #223322",
", c #333322",
"< c #443311",
"1 c #442222",
"2 c #443322",
"3 c #443333",
"4 c #444422",
/* pixels */
"oo.o.o.$.o.o.o.o.o@o...o..o..o..o..o@..o..o.o.o.o.o.o.o.o.o..o..o.o..o..o.o..o.o@o..o.o.o.o",
"$;$$$o$o$$$$$$o$$o$o$$$$$o$$o$o$$$$o$o$$o$$$$o$$$$$$$$$o$$$$$o$$$o$$$o$$$$$$$$o$o$$o$$$o$$=",
"o$%;%;$;$%;;%;;%;$;%;%;%;%;$:$%;%;%;%;%;%$;%;;%;$:$:$;%;$:$:%;%;%:$;%;%;$%;%;%$;%;$:;$:;$$%",
"oo..X.$ o..X.o . $o o. .X. o+.o. ..X.@ o..X..Xo.o. ..X. o. .. .. . o .X.o. .o..$ o.o o.X.o.",
"$.o#.oo.$ o@X.$oo.$o$oo$oo$.oo$o$oo$ooo$oo$o$.$$o$oo$o$o$oo$oo$oo$oo@oo@X$oo#.oX.$ $.X@o.#.",
"o.$.o@X$oo$oo$o$.$o$o$o$o$o$o$o$oo$o$o$o$$oo$o$o$o$o$o$o$o$o$o$o$o$o$o$oo.$o$o$o$ooo$oo$oo$",
"oX.X$oo$o$o$o$o$oo$$oo$oo$$o$o$$o$$o$o$o$oo$$o%$o$o$o$o$oo$o$o$o$o$oo$o$o$o$o$o$o$o$o$o$o$o",
"$.o$o$o$o$o$o$o$o$$o$$o$$O$o$$o$o$o$$$o$$o$$oo$$$o$$o$o$$$o$$o$o$o$o$$o$oo$$oo$o$o$o$o$o$o$",
"oo.$o$o$$o$o$$o%$o:$$o$$o$o$$o%o$o%o$o$%o$$o$$:$O$Oo$o$o$O$%o%$$o$$o%o$$o$$o$$$o$$o$$o$o$o$",
"$.X$o$$O$O$$O$o$o$%$$O$o%$%o%$$%$$$;o%$o$%o%$o%$$$;$%$$%$o$o$o$o%$o$$$-$$o;%o%o$$O$$o$o$o$o",
"oo@o$o$o$$$o$$%$$o:$:$$%$$%$$%$%$$%$%$%$%$$;%o,%$%$%$%$:$%$%$%$%$%$%$%$%o$%o$;$%o$$o%$%$$%$",
"$.o$o$%$%;O$O$%$O$%%$%$:$%;$%$%$%$%%$%$%$%$%%$:$%$%$%$%$%$%$%;%$:$%$%$%$$$%$%$O;%$O$$%o$O$o",
"o $o$$o%$%$$$:$%$o,%%$%$%$%$:$$:%$%;%$:$:%$%$o2%:%$:$:%$:$:%$%$%$%:$%;%%$O$%$%$%$%$%$:$%$$%",
"ooo$o$%$$%%$O$%;$%%,$%$%%:%$%%%%$:$%%$%$%$:$%$,%$%$%%$%$*%$%%$:%%$%$%%$%;$:%$:%$%;%$%%$%%;%",
"$.$o$%$%:$%$$%%%%$:%%;%:$%$%:$%;%%%%;%%:%:%%%$:%%:%;%:%:%$,$:%%$:$%%:$:%$%$%$%$%%$%o%$%o$o%",
"o.X$o$%$%$:$%:$:$$:%$%%$%%:$%:%%$%>%%%$%$%&%;%,%%%$%%%$%$%%%&%$:%$:$%%%$%$%$$%;$$%;%$;%$%%$",
"oo$o$O$:$%%$%$%%$%,%:%$%;%$%%$%$:%%$*;%,%:%:%$:*:$%$:*:%:%:$%:%%$%%%$,$:%$3,222,2,,2,2,:,%,",
"$.o$$$%$%%;%$:$:%$:%%$:*%%%;%:%%$%:%:%%%%$%*$%,%%*:%%$%$%$*:%$*:%:%;%%%%$%2:,%,%:*%%%$%$:%$",
"o.X$$O$%:$%%$%%%$$,:$%$%;%$%&%$:%:&%$%$,%:%:%$1*:%$*:%*:%:%%$:%$%$*%%$:$%$:%$%:$%:$:$:%$%$:",
"$o$oo$$%$%%;%$:%$%%%%%:%%%:%%:*%$%%:%%:%%*%$%$,%%%:$%:%%$%%;%%%:%:%$:%%,%$2$%:$%$%%%%%$$:%%",
"o.o$$%o%%:$%$%%$:$,%;%$%;%$:$%%;%%:*:$*%;%:%:$1*:$%%,$%,%:*%:%;*$%:%%$%$%$,%$%%%$:*;%$%$%$:",
"$o@o$%$:$%$%$%;%%$:%%%:%%%%%%>%%,%$%%%:%%,%$%$,%%%:%%%:%$%:%$%%%%:$%;%:%%$1$%:$%;%$%%:$%:%$",
"o o$o$%$%:%:$%%$%$,%$:$%&:$:%%:$%%:%$:%,%%%*:$2%,%$*:%%*%:$*%,%:$*%,%%%$:$,%$%%$%%%:$%$%$%%",
"$o$o$%o%:$%$%:$:%$:%%%%%:%%&%:%$%,%>%%%$%:$:%%,%%:%:$,%$:*%%:$%%%:%$%&:%%$2$:%;%%;%$%:$%:$:",
"o.o$$%$%$%%:$$%%$%,$%&:$%%;%:*%%:%%%%,%:%*%%%$,%:$%*%%:%%%:$%%,$:%%:%:%:$%,%$%%%$%%,$%$%$%%",
"o.$o$%$:%;%$%%%;%$:%:%%%,%%%%$%;*%$:$%%*:$:%,$1*%%%:%,$:*:$:*:%%&%,$%%&%%$,%%:$:$%;%%:$%%;%",
"$oX$o%$%$%%%$%;%%$:%%$:%$:$,%:%%%:%*%:*:%%*$%%,%,%:*%%%%%*%%%%$:%:%%*:%:$%:%$%%$%%%$%$%$:%%",
"o.$o$$%$%:$:$%%%$%,$%:*%:%%%%*;%,%%:$%%%$:%:%$,%%$%%:%;*:%%:*:*%%%*;%%%%:$2$:%:%$:$:%:$%$%$",
"$.o$$%$%%$%%$;%$:$%:%%$:*$%;%:%%%%,%%:*:%*%*:$2%:%*:*%%%%:$%%%:%,%:%:$%,$%,%%%&:%%%%$%$%:%:",
"oo$o%$:$:$:$%%%%$%:&%%,%%%:*%$%:&:%%>%%$:%:%%$,%*:%%%;*:*$,%&:*%$%%*%,%%%$2$:%:%$%:$:%$:$%%",
"o $o$$%$%%%%$:$:%$%:%;%:%;%%%,%%%%*:%%%,%*%,%$2%:$%,%%%%:%%%:%%:%,$:%%:%$%:%$%%%$:%*%$%%%$:",
"$.o$$O%$%:$:$%%%$%:*%*%%*%%,%$%,%:$%%$,%%%:%%%:*%%,%%:%,%$:*%*:%*%%%:*%*:$,%%,$,%%$:%;%$:%$",
"oo$o$%;O%$%%$%:$%$%%;%:$%;%%:%:%%*:*%:%%:*:*:$,%:%%;*:*%%:%%:%$%:%%>%%:$%%,%:%:%$%:%%*$%$%:",
"$.o$$%$%;%:$%$%*:$%,%%%,%%*;%*$*%:%%:*%,%:%%$$1*%:*%%*%:%*%,%%,%%,%%:%*:%$2$%%$%$:*%$:%%,$%",
"o.#o%$%$%%$%%;%$%$:%%*:%;%:%%%:%:*%:*%:%*%*:%%,%:%$%:%:$,%:%*:%*:%;%*%:%$%,%%,%,%%$:%%$%$%:",
"oo$o$$:$%;%:$%%:%$%*:$%%%%*%,$%*%:%*:%%,%:%%*$:*%%:*%,%%%:%*:%:*%*%%:%$*:%,%;%%%$%:%%;%:%$%",
"$.o$$%%$%%%$%$:%;%%:%%:*;%:%%:%:%*%:*%,%%*;%:%,%%,%%:%%*:*%:%*%:%:%,%*:%%$,%%%,%;%&%:%$%%:%",
"o.#o$%$%:$:%%$%%$%,$%,%$%*%,%$*%,%,%%:%*:%%,%$2%,%%,%*$:%%,%*:%%,%%%:%%:%$2%:%$%%%:%&%$:$%;",
"$oo$$%;%$%%$:$%:%$%%:%%%:%:%:%:%%:%:,%,%:%:*%%,%%:*%:%:%*:%%:%%,%*$,%*:%,$1$%*:%:$*:%%:%%%%",
"o.$$o%%$%%:%*$%%$%:%*$,%$*%*$%%,%*%*%%%%$*%*:%%,%*:*%;**:*%,%*:%%:%%:%&%%%,%:%*%$%:$:%$*;%;",
"oo$o$$%$:$%$:%;%:$%%:%%:%%:%:%,$%:%;%:%:%:$:%$,%:%*:%%%:%%,%%;%*:*$:*:%:%$,%$:%%:%%*%$%:%%%",
"$.o$$%%$%%:%%$%*%$:%$:%$%;%$%$%:%$%%%$%$%%%%$%:*%,%:%*:*%,%:*:%:%:%*%%%*:$2%%*:$%$%;%%:%%$:",
"oX$o$%;%$%$%:$%:$%4222222222222,2,2,,,<,2,,*:%*%:%%$%:%%:%%%%%%%%$:%:$%:%%,:$:%:*:%*:$%$,%%",
"$.o$%$%$:%:%*$%%:$2,:*,:,*,%,%:%%,%%:*:%:*%:%$:$$%%$%$%$%$%%$%%$%%%%$%;$%$2%%%*%%$%:%$%:%%;",
"oo$$o$%%$%$%:%$:%$2:*:$%%%:%:*%,%%:*%:*%&:%%,$2222,2222222,2,2,2,:*:%*%%%$,%%:%:*:$*%%,%$:%",
"o.$o$%:$%:%:$%$%%$2%%%%:*:*%&%:$%,%,%,%%:%*:%%22,2,2,,%,,:*:*:*%:*%:*:%,%$2%;*%%%%:%;%%%:%%",
"$o#o$%$%$%%%%:$:%$2,$%,%%%:%:%%%,%%%%%%:*%:*%$2,%:*:%%,%%%:*:*%:&%:*%:*%,%,%%%:*;%%$%$*:&%$",
"o.o$%$%:%$:$:%%%$:2%%:%%,%&%%:*:%,$%:*:*%:*:%$2%%*:*%,%*;%*:%%,%%:*%:*%:%$,%%,%%%,%%:%:%%%:",
"$o$o$$O$$:%%%$$:%$2:%*%,%:%%,%%*%%:*%:%%,%%*:$2:%,%%,%%:*%:*%,%%:*%:*%:*%%,%:$%*:%%,%*$%:$%",
"o.o$o%$%$%%$%:%%$$2%,%:%$%:*%,%:%,%%,%*:*%,:%$2%,%%,%%,%%:*%,%%:*%,%%,%%:$2%%*:%*:$%%:%,%,%",
"o$$:,,,2,2,,*,%,%%,:%%%*:*%::%%%,%%,%*:*:%%*%$2,%%,%%,%&:*%:%%>%%:%*:%*:%$2%%:%:%%*:%%*%%%$",
"$.o$$o%$%%;%:%,%$%2*:*:%%:*%*$:*%%,%%:%%$,%%:$2%%,%%,%%:%%,%*:%%,%*:*%:*$%,%,$%*:%:%>%%;%:%",
"oX$o$%%:%:*%$%%:%$2:%%%:*%:%%:*:%,%,%,%%:%%,%%,%,%%,%:%*%,%%:%*,%*:%%,%%:%,%%%%:*%*%%:%%*%;",
"o.$o%$$%$%%$:*:*;%,*:&%,%:*%:*%%,%%%$%%,%*:%%$2:%*:*%*:%,%%,$%:%%:*%,%,%%$2%:*:*%%:%:*:%;*%",
"$.o$$%:%:%:%%%%%%$2:%%:%*%;%*:%,%%,%:*:%*:%*:$2%*:%%:%%*%:*%:*%*:*:%*%$:*%%,%%%:%,%*%$%%%:$",
"oo#o$%$%%$%,$%:*;%2*:*%,%:%*:%*%,$%%*:%*:%,%*$2%:*%,$%,%:*:%%,%:*%%,%:%*:$,%*:$*:%%:%,%,%%%"
};
